<?xml version="1.0" encoding="UTF-8" standalone="no"?>
<!DOCTYPE svg PUBLIC "-//W3C//DTD SVG 1.1//EN" "http://www.w3.org/Graphics/SVG/1.1/DTD/svg11.dtd">
<svg width="100%" height="100%" viewBox="0 0 205 26" version="1.1" xmlns="http://www.w3.org/2000/svg" xmlns:xlink="http://www.w3.org/1999/xlink" xml:space="preserve" xmlns:serif="http://www.serif.com/" style="fill-rule:evenodd;clip-rule:evenodd;stroke-linejoin:round;stroke-miterlimit:2;">
    <g transform="matrix(1,0,0,1,-6.52811e-14,-145.042)">
        <g id="modern_app_workbench" transform="matrix(0.925043,0,0,0.355776,1.7229,150.114)">
            <rect x="-1.863" y="-14.255" width="220.561" height="70.343" style="fill:none;"/>
            <g transform="matrix(4.49393,0,0,10.9178,-1040.63,-219.91)">
                <g transform="matrix(3.97092,0,0,3.97092,255.217,23.5503)">
                    <rect x="0" y="-0" width="0.5" height="0.048" style="fill-rule:nonzero;"/>
                </g>
                <g transform="matrix(3.97092,0,0,3.97092,257.116,23.5503)">
                    <path d="M0.871,-0.526L0.672,-0L0.605,-0L0.439,-0.431L0.273,-0L0.206,-0L0.008,-0.526L0.076,-0.526L0.241,-0.079L0.41,-0.526L0.471,-0.526L0.639,-0.079L0.806,-0.526L0.871,-0.526Z" style="fill-rule:nonzero;"/>
                </g>
                <g transform="matrix(3.97092,0,0,3.97092,260.507,23.5503)">
                    <path d="M0.314,0.005C0.263,0.005 0.218,-0.007 0.177,-0.03C0.136,-0.053 0.104,-0.084 0.081,-0.125C0.058,-0.166 0.046,-0.212 0.046,-0.263C0.046,-0.314 0.058,-0.36 0.081,-0.401C0.104,-0.442 0.136,-0.473 0.177,-0.496C0.218,-0.519 0.263,-0.53 0.314,-0.53C0.365,-0.53 0.41,-0.519 0.451,-0.496C0.492,-0.473 0.524,-0.442 0.547,-0.401C0.57,-0.36 0.581,-0.314 0.581,-0.263C0.581,-0.212 0.57,-0.166 0.547,-0.125C0.524,-0.084 0.492,-0.053 0.451,-0.03C0.41,-0.007 0.365,0.005 0.314,0.005ZM0.314,-0.058C0.351,-0.058 0.385,-0.067 0.415,-0.084C0.444,-0.1 0.467,-0.125 0.484,-0.156C0.501,-0.187 0.509,-0.223 0.509,-0.263C0.509,-0.303 0.501,-0.339 0.484,-0.37C0.467,-0.401 0.444,-0.426 0.415,-0.443C0.385,-0.46 0.351,-0.468 0.314,-0.468C0.277,-0.468 0.243,-0.46 0.214,-0.443C0.184,-0.426 0.161,-0.401 0.144,-0.37C0.127,-0.339 0.118,-0.303 0.118,-0.263C0.118,-0.223 0.127,-0.187 0.144,-0.156C0.161,-0.125 0.184,-0.1 0.214,-0.084C0.243,-0.067 0.277,-0.058 0.314,-0.058Z" style="fill-rule:nonzero;"/>
                </g>
                <g transform="matrix(3.97092,0,0,3.97092,262.957,23.5503)">
                    <path d="M0.167,-0.423C0.184,-0.458 0.209,-0.485 0.242,-0.503C0.274,-0.521 0.315,-0.53 0.364,-0.53L0.364,-0.461L0.347,-0.462C0.292,-0.462 0.248,-0.445 0.217,-0.411C0.186,-0.377 0.17,-0.329 0.17,-0.268L0.17,-0L0.099,-0L0.099,-0.526L0.167,-0.526L0.167,-0.423Z" style="fill-rule:nonzero;"/>
                </g>
                <g transform="matrix(3.97092,0,0,3.97092,264.478,23.5503)">
                    <path d="M0.294,-0.264L0.17,-0.15L0.17,-0L0.099,-0L0.099,-0.742L0.17,-0.742L0.17,-0.239L0.484,-0.526L0.572,-0.526L0.347,-0.311L0.593,-0L0.506,-0L0.294,-0.264Z" style="fill-rule:nonzero;"/>
                </g>
                <g transform="matrix(3.97092,0,0,3.97092,266.824,23.5503)">
                    <path d="M0.37,-0.53C0.419,-0.53 0.464,-0.519 0.504,-0.497C0.544,-0.474 0.575,-0.443 0.598,-0.402C0.621,-0.361 0.632,-0.315 0.632,-0.263C0.632,-0.211 0.621,-0.165 0.598,-0.124C0.575,-0.083 0.544,-0.052 0.504,-0.029C0.464,-0.006 0.419,0.005 0.37,0.005C0.326,0.005 0.286,-0.004 0.252,-0.023C0.217,-0.042 0.188,-0.069 0.167,-0.104L0.167,-0L0.099,-0L0.099,-0.742L0.17,-0.742L0.17,-0.426C0.192,-0.46 0.22,-0.486 0.255,-0.504C0.289,-0.521 0.327,-0.53 0.37,-0.53ZM0.365,-0.058C0.402,-0.058 0.435,-0.067 0.465,-0.084C0.495,-0.1 0.519,-0.125 0.536,-0.156C0.553,-0.187 0.561,-0.223 0.561,-0.263C0.561,-0.303 0.553,-0.339 0.536,-0.37C0.519,-0.401 0.495,-0.426 0.465,-0.443C0.435,-0.46 0.402,-0.468 0.365,-0.468C0.328,-0.468 0.294,-0.46 0.265,-0.443C0.235,-0.426 0.212,-0.401 0.195,-0.37C0.178,-0.339 0.169,-0.303 0.169,-0.263C0.169,-0.223 0.178,-0.187 0.195,-0.156C0.212,-0.125 0.235,-0.1 0.265,-0.084C0.294,-0.067 0.328,-0.058 0.365,-0.058Z" style="fill-rule:nonzero;"/>
                </g>
                <g transform="matrix(3.97092,0,0,3.97092,269.477,23.5503)">
                    <path d="M0.557,-0.241L0.117,-0.241C0.121,-0.186 0.142,-0.142 0.18,-0.109C0.218,-0.075 0.266,-0.058 0.324,-0.058C0.357,-0.058 0.387,-0.064 0.414,-0.076C0.441,-0.087 0.465,-0.104 0.485,-0.127L0.525,-0.081C0.502,-0.053 0.472,-0.032 0.438,-0.017C0.403,-0.002 0.364,0.005 0.322,0.005C0.268,0.005 0.22,-0.007 0.179,-0.03C0.137,-0.053 0.104,-0.084 0.081,-0.125C0.058,-0.166 0.046,-0.212 0.046,-0.263C0.046,-0.314 0.057,-0.36 0.08,-0.401C0.102,-0.442 0.133,-0.473 0.172,-0.496C0.211,-0.519 0.254,-0.53 0.303,-0.53C0.352,-0.53 0.395,-0.519 0.434,-0.496C0.473,-0.473 0.503,-0.442 0.525,-0.402C0.547,-0.361 0.558,-0.315 0.558,-0.263L0.557,-0.241ZM0.303,-0.469C0.252,-0.469 0.21,-0.453 0.176,-0.421C0.141,-0.388 0.122,-0.346 0.117,-0.294L0.49,-0.294C0.485,-0.346 0.466,-0.388 0.432,-0.421C0.397,-0.453 0.354,-0.469 0.303,-0.469Z" style="fill-rule:nonzero;"/>
                </g>
                <g transform="matrix(3.97092,0,0,3.97092,271.836,23.5503)">
                    <path d="M0.367,-0.53C0.433,-0.53 0.486,-0.511 0.525,-0.473C0.564,-0.434 0.583,-0.378 0.583,-0.305L0.583,-0L0.512,-0L0.512,-0.298C0.512,-0.353 0.498,-0.394 0.471,-0.423C0.444,-0.452 0.405,-0.466 0.354,-0.466C0.297,-0.466 0.253,-0.449 0.22,-0.416C0.187,-0.382 0.17,-0.335 0.17,-0.276L0.17,-0L0.099,-0L0.099,-0.526L0.167,-0.526L0.167,-0.429C0.186,-0.461 0.213,-0.486 0.248,-0.504C0.282,-0.521 0.322,-0.53 0.367,-0.53Z" style="fill-rule:nonzero;"/>
                </g>
                <g transform="matrix(3.97092,0,0,3.97092,274.492,23.5503)">
                    <path d="M0.317,0.005C0.265,0.005 0.219,-0.006 0.178,-0.029C0.136,-0.052 0.104,-0.084 0.081,-0.125C0.058,-0.166 0.046,-0.212 0.046,-0.263C0.046,-0.314 0.058,-0.36 0.081,-0.401C0.104,-0.442 0.136,-0.473 0.178,-0.496C0.219,-0.519 0.265,-0.53 0.317,-0.53C0.362,-0.53 0.403,-0.521 0.439,-0.504C0.474,-0.486 0.502,-0.46 0.523,-0.426L0.47,-0.39C0.453,-0.416 0.431,-0.436 0.404,-0.449C0.377,-0.462 0.348,-0.468 0.317,-0.468C0.279,-0.468 0.245,-0.46 0.215,-0.443C0.184,-0.426 0.161,-0.401 0.144,-0.37C0.127,-0.339 0.118,-0.303 0.118,-0.263C0.118,-0.222 0.127,-0.187 0.144,-0.156C0.161,-0.125 0.184,-0.1 0.215,-0.084C0.245,-0.067 0.279,-0.058 0.317,-0.058C0.348,-0.058 0.377,-0.064 0.404,-0.077C0.431,-0.09 0.453,-0.109 0.47,-0.135L0.523,-0.099C0.502,-0.065 0.474,-0.039 0.438,-0.022C0.402,-0.004 0.362,0.005 0.317,0.005Z" style="fill-rule:nonzero;"/>
                </g>
                <g transform="matrix(3.97092,0,0,3.97092,276.656,23.5503)">
                    <path d="M0.367,-0.53C0.433,-0.53 0.486,-0.511 0.525,-0.473C0.564,-0.434 0.583,-0.378 0.583,-0.305L0.583,-0L0.512,-0L0.512,-0.298C0.512,-0.353 0.498,-0.394 0.471,-0.423C0.444,-0.452 0.405,-0.466 0.354,-0.466C0.297,-0.466 0.253,-0.449 0.22,-0.416C0.187,-0.382 0.17,-0.335 0.17,-0.276L0.17,-0L0.099,-0L0.099,-0.742L0.17,-0.742L0.17,-0.434C0.189,-0.465 0.216,-0.488 0.25,-0.505C0.284,-0.522 0.323,-0.53 0.367,-0.53Z" style="fill-rule:nonzero;"/>
                </g>
            </g>
            <g transform="matrix(0.617691,0,0,1.60604,22.8163,4.26976)">
                <g id="Group_63">
                    <g id="Path_60" transform="matrix(0.977772,0,0,0.977772,-143.774,-177.073)">
                        <path d="M147.042,181.589L151.031,181.589L157.599,192.955L157.838,192.955L164.406,181.589L168.424,181.589L168.424,203.061L164.406,203.061L164.406,192.475L164.645,188.875L164.406,188.875L158.947,198.501L156.519,198.501L151.031,188.875L150.791,188.875L151.031,192.475L151.031,203.061L147.042,203.061L147.042,181.589Z" style="fill-rule:nonzero;"/>
                    </g>
                    <g id="Path_62" transform="matrix(0.977772,0,0,0.977772,-160.111,-177.073)">
                        <path d="M213.8,181.589L221.057,181.589C222.621,181.566 224.177,181.83 225.646,182.369C226.947,182.851 228.131,183.6 229.124,184.569C230.091,185.533 230.841,186.692 231.324,187.969C232.343,190.788 232.343,193.877 231.324,196.696C230.844,197.971 230.093,199.128 229.124,200.085C228.129,201.048 226.944,201.793 225.646,202.274C224.177,202.813 222.621,203.077 221.057,203.054L213.8,203.054L213.8,181.589ZM220.877,199.222C221.938,199.241 222.993,199.074 223.996,198.727C224.839,198.433 225.607,197.957 226.245,197.333C226.854,196.72 227.316,195.977 227.595,195.159C228.196,193.318 228.196,191.332 227.595,189.491C227.315,188.674 226.854,187.93 226.245,187.317C225.608,186.693 224.842,186.217 224,185.922C222.997,185.575 221.942,185.408 220.881,185.427L217.852,185.427L217.852,199.222L220.877,199.222Z" style="fill-rule:nonzero;"/>
                    </g>
                    <g id="Path_63" transform="matrix(0.977772,0,0,0.977772,-167.149,-177.073)">
                        <path d="M246.61,185.428L246.61,190.406L255.217,190.406L255.217,194.245L246.61,194.245L246.61,199.223L256.177,199.223L256.177,203.062L242.562,203.062L242.562,181.589L256.177,181.589L256.177,185.428L246.61,185.428Z" style="fill-rule:nonzero;"/>
                    </g>
                    <g id="Path_64" transform="matrix(0.977772,0,0,0.977772,-172.807,-177.073)">
                        <path d="M265.681,181.589L273.507,181.589C274.51,181.575 275.507,181.748 276.447,182.099C277.287,182.415 278.057,182.894 278.711,183.508C279.342,184.111 279.838,184.842 280.165,185.652C280.511,186.515 280.684,187.437 280.675,188.366C280.68,189.057 280.558,189.743 280.314,190.39C280.08,191.01 279.746,191.587 279.325,192.099C278.899,192.614 278.405,193.068 277.856,193.449C277.31,193.832 276.715,194.139 276.087,194.364L276.057,194.574L281.814,202.821L281.814,203.061L277.167,203.061L271.619,194.994L269.729,194.994L269.729,203.061L265.681,203.061L265.681,181.589ZM273.481,191.275C274.317,191.306 275.132,191.004 275.746,190.435C276.331,189.885 276.654,189.109 276.63,188.306C276.63,187.928 276.564,187.552 276.436,187.196C276.308,186.84 276.108,186.513 275.85,186.236C275.576,185.946 275.243,185.716 274.875,185.561C274.453,185.385 273.998,185.298 273.541,185.306L269.732,185.306L269.732,191.274L273.481,191.275Z" style="fill-rule:nonzero;"/>
                    </g>
                    <g id="Path_65" transform="matrix(0.977772,0,0,0.977772,-178.876,-177.073)">
                        <path d="M290.48,181.589L295.189,181.589L303.825,195.984L304.066,195.984L303.825,191.846L303.825,181.589L307.844,181.589L307.844,203.061L303.585,203.061L294.469,187.861L294.228,187.861L294.469,191.999L294.469,203.065L290.48,203.065L290.48,181.589Z" style="fill-rule:nonzero;"/>
                    </g>
                    <g id="Mask_Group_9" transform="matrix(0.935009,0,0,0.936127,24.4397,0.480325)">
                        <clipPath id="_clip1">
                            <path d="M11.216,22.432C9.688,22.446 8.173,22.15 6.763,21.562C4.076,20.451 1.946,18.304 0.855,15.609C-0.285,12.792 -0.285,9.639 0.855,6.822C1.946,4.127 4.076,1.98 6.763,0.869C9.617,-0.29 12.815,-0.29 15.669,0.869C18.356,1.98 20.486,4.127 21.577,6.822C22.716,9.639 22.716,12.792 21.577,15.609C20.486,18.304 18.356,20.451 15.669,21.562C14.259,22.15 12.744,22.446 11.216,22.432Z"/>
                        </clipPath>
                        <g clip-path="url(#_clip1)">
                            <g id="assets" transform="matrix(1,0,0,1,-134.588,-61.023)">
                                <g id="pattern-style1">
                                    <g id="Mask" transform="matrix(1,0,0,1,107.777,40.207)">
                                        <rect x="0" y="0" width="266.035" height="111.232" style="fill:rgb(65,74,107);"/>
                                    </g>
                                    <g id="diagonal-45-style1" transform="matrix(1,0,0,1,51.022,8.458)">
                                        <g opacity="0.5">
                                            <g id="Rectangle" transform="matrix(-1,-7.65714e-16,7.65714e-16,-1,228.35,169.917)">
                                                <g opacity="0.7">
                                                    <g id="Path_264" transform="matrix(0.707107,-0.707107,0.707107,0.707107,0,11.6)">
                                                        <path d="M0,217.983L6.642,217.983L6.764,0L0.123,0L0,217.983Z" style="fill:rgb(255,88,80);"/>
                                                    </g>
                                                    <g id="Path_265" transform="matrix(0.707107,-0.707107,0.707107,0.707107,28.306,20.258)">
                                                        <path d="M0,205.363L6.642,205.363L6.757,0L0.116,0L0,205.363Z" style="fill:rgb(180,154,133);"/>
                                                    </g>
                                                    <g id="Path_266" transform="matrix(0.707107,-0.707107,0.707107,0.707107,70.088,9.597)">
                                                        <path d="M0,217.053L6.642,217.053L6.764,0L0.122,0L0,217.053Z" style="fill:rgb(180,154,133);"/>
                                                    </g>
                                                    <g id="Path_267" transform="matrix(0.707107,-0.707107,0.707107,0.707107,28.234,4.788)">
                                                        <path d="M0,231L6.642,231L6.772,0L0.13,0L0,231Z" style="fill:rgb(80,182,255);"/>
                                                    </g>
                                                    <g id="Path_268" transform="matrix(0.707107,-0.707107,0.707107,0.707107,16.959,15.999)">
                                                        <path d="M0,208.417L3.055,208.417L3.173,0L0.117,0L0,208.417Z" style="fill:rgb(243,193,48);"/>
                                                    </g>
                                                    <g id="Path_269" transform="matrix(0.707107,-0.707107,0.707107,0.707107,46.895,11.02)">
                                                        <path d="M0,217.051L3.055,217.051L3.177,0L0.122,0L0,217.051Z" style="fill:rgb(255,88,80);"/>
                                                    </g>
                                                    <g id="Path_270" transform="matrix(0.707107,-0.707107,0.707107,0.707107,55.376,12.464)">
                                                        <path d="M0,213.331L3.055,213.331L3.175,0L0.12,0L0,213.331Z" style="fill:rgb(243,192,47);"/>
                                                    </g>
                                                    <g id="Path_271" transform="matrix(0.707107,-0.707107,0.707107,0.707107,66.59,14.936)">
                                                        <path d="M0,219.176L3.055,219.176L3.179,0L0.123,0L0,219.176Z" style="fill:rgb(35,219,149);"/>
                                                    </g>
                                                </g>
                                            </g>
                                        </g>
                                    </g>
                                    <g id="diagonal-45-style1-2" transform="matrix(1,0,0,1,140.725,0)">
                                        <g opacity="0.5">
                                            <g id="Rectangle-2" transform="matrix(-1,-7.65714e-16,7.65714e-16,-1,228.35,169.917)">
                                                <g opacity="0.7">
                                                    <g id="Path_272" transform="matrix(0.707107,-0.707107,0.707107,0.707107,0,11.6)">
                                                        <path d="M0,217.983L6.642,217.983L6.764,0L0.123,0L0,217.983Z" style="fill:rgb(255,88,80);"/>
                                                    </g>
                                                    <g id="Path_273" transform="matrix(0.707107,-0.707107,0.707107,0.707107,28.306,20.258)">
                                                        <path d="M0,205.363L6.642,205.363L6.757,0L0.116,0L0,205.363Z" style="fill:rgb(180,154,133);"/>
                                                    </g>
                                                    <g id="Path_274" transform="matrix(0.707107,-0.707107,0.707107,0.707107,70.088,9.597)">
                                                        <path d="M0,217.053L6.642,217.053L6.764,0L0.122,0L0,217.053Z" style="fill:rgb(180,154,133);"/>
                                                    </g>
                                                    <g id="Path_275" transform="matrix(0.707107,-0.707107,0.707107,0.707107,28.234,4.788)">
                                                        <path d="M0,231L6.642,231L6.772,0L0.13,0L0,231Z" style="fill:rgb(80,182,255);"/>
                                                    </g>
                                                    <g id="Path_276" transform="matrix(0.707107,-0.707107,0.707107,0.707107,16.959,15.999)">
                                                        <path d="M0,208.417L3.055,208.417L3.173,0L0.117,0L0,208.417Z" style="fill:rgb(243,193,48);"/>
                                                    </g>
                                                    <g id="Path_277" transform="matrix(0.707107,-0.707107,0.707107,0.707107,46.895,11.02)">
                                                        <path d="M0,217.051L3.055,217.051L3.177,0L0.122,0L0,217.051Z" style="fill:rgb(255,88,80);"/>
                                                    </g>
                                                    <g id="Path_278" transform="matrix(0.707107,-0.707107,0.707107,0.707107,55.376,12.464)">
                                                        <path d="M0,213.331L3.055,213.331L3.175,0L0.12,0L0,213.331Z" style="fill:rgb(243,192,47);"/>
                                                    </g>
                                                    <g id="Path_279" transform="matrix(0.707107,-0.707107,0.707107,0.707107,66.59,14.936)">
                                                        <path d="M0,219.176L3.055,219.176L3.179,0L0.123,0L0,219.176Z" style="fill:rgb(35,219,149);"/>
                                                    </g>
                                                </g>
                                            </g>
                                        </g>
                                    </g>
                                    <g id="diagonal-45-style1-3" transform="matrix(1,0,0,1,237.605,0)">
                                        <g opacity="0.5">
                                            <g id="Rectangle-3" transform="matrix(-1,-7.65714e-16,7.65714e-16,-1,228.35,169.917)">
                                                <g opacity="0.7">
                                                    <g id="Path_280" transform="matrix(0.707107,-0.707107,0.707107,0.707107,0,11.6)">
                                                        <path d="M0,217.983L6.642,217.983L6.764,0L0.123,0L0,217.983Z" style="fill:rgb(255,88,80);"/>
                                                    </g>
                                                    <g id="Path_281" transform="matrix(0.707107,-0.707107,0.707107,0.707107,28.306,20.258)">
                                                        <path d="M0,205.363L6.642,205.363L6.757,0L0.116,0L0,205.363Z" style="fill:rgb(180,154,133);"/>
                                                    </g>
                                                    <g id="Path_282" transform="matrix(0.707107,-0.707107,0.707107,0.707107,70.088,9.597)">
                                                        <path d="M0,217.053L6.642,217.053L6.764,0L0.122,0L0,217.053Z" style="fill:rgb(180,154,133);"/>
                                                    </g>
                                                    <g id="Path_283" transform="matrix(0.707107,-0.707107,0.707107,0.707107,28.234,4.788)">
                                                        <path d="M0,231L6.642,231L6.772,0L0.13,0L0,231Z" style="fill:rgb(80,182,255);"/>
                                                    </g>
                                                    <g id="Path_284" transform="matrix(0.707107,-0.707107,0.707107,0.707107,16.959,15.999)">
                                                        <path d="M0,208.417L3.055,208.417L3.173,0L0.117,0L0,208.417Z" style="fill:rgb(243,193,48);"/>
                                                    </g>
                                                    <g id="Path_285" transform="matrix(0.707107,-0.707107,0.707107,0.707107,46.895,11.02)">
                                                        <path d="M0,217.051L3.055,217.051L3.177,0L0.122,0L0,217.051Z" style="fill:rgb(255,88,80);"/>
                                                    </g>
                                                    <g id="Path_286" transform="matrix(0.707107,-0.707107,0.707107,0.707107,55.376,12.464)">
                                                        <path d="M0,213.331L3.055,213.331L3.175,0L0.12,0L0,213.331Z" style="fill:rgb(243,192,47);"/>
                                                    </g>
                                                    <g id="Path_287" transform="matrix(0.707107,-0.707107,0.707107,0.707107,66.59,14.936)">
                                                        <path d="M0,219.176L3.055,219.176L3.179,0L0.123,0L0,219.176Z" style="fill:rgb(35,219,149);"/>
                                                    </g>
                                                </g>
                                            </g>
                                        </g>
                                    </g>
                                    <g id="diagonal-45-style1-4" transform="matrix(1,0,0,1,330.384,0)">
                                        <g opacity="0.5">
                                            <g id="Rectangle-4" transform="matrix(-1,-7.65714e-16,7.65714e-16,-1,228.35,169.917)">
                                                <g opacity="0.7">
                                                    <g id="Path_288" transform="matrix(0.707107,-0.707107,0.707107,0.707107,0,11.6)">
                                                        <path d="M0,217.983L6.642,217.983L6.764,0L0.123,0L0,217.983Z" style="fill:rgb(255,88,80);"/>
                                                    </g>
                                                    <g id="Path_289" transform="matrix(0.707107,-0.707107,0.707107,0.707107,28.306,20.258)">
                                                        <path d="M0,205.363L6.642,205.363L6.757,0L0.116,0L0,205.363Z" style="fill:rgb(180,154,133);"/>
                                                    </g>
                                                    <g id="Path_290" transform="matrix(0.707107,-0.707107,0.707107,0.707107,70.088,9.597)">
                                                        <path d="M0,217.053L6.642,217.053L6.764,0L0.122,0L0,217.053Z" style="fill:rgb(180,154,133);"/>
                                                    </g>
                                                    <g id="Path_291" transform="matrix(0.707107,-0.707107,0.707107,0.707107,28.234,4.788)">
                                                        <path d="M0,231L6.642,231L6.772,0L0.13,0L0,231Z" style="fill:rgb(80,182,255);"/>
                                                    </g>
                                                    <g id="Path_292" transform="matrix(0.707107,-0.707107,0.707107,0.707107,16.959,15.999)">
                                                        <path d="M0,208.417L3.055,208.417L3.173,0L0.117,0L0,208.417Z" style="fill:rgb(243,193,48);"/>
                                                    </g>
                                                    <g id="Path_293" transform="matrix(0.707107,-0.707107,0.707107,0.707107,46.895,11.02)">
                                                        <path d="M0,217.051L3.055,217.051L3.177,0L0.122,0L0,217.051Z" style="fill:rgb(255,88,80);"/>
                                                    </g>
                                                    <g id="Path_294" transform="matrix(0.707107,-0.707107,0.707107,0.707107,55.376,12.464)">
                                                        <path d="M0,213.331L3.055,213.331L3.175,0L0.12,0L0,213.331Z" style="fill:rgb(243,192,47);"/>
                                                    </g>
                                                    <g id="Path_295" transform="matrix(0.707107,-0.707107,0.707107,0.707107,66.59,14.936)">
                                                        <path d="M0,219.176L3.055,219.176L3.179,0L0.123,0L0,219.176Z" style="fill:rgb(35,219,149);"/>
                                                    </g>
                                                </g>
                                            </g>
                                        </g>
                                    </g>
                                    <g id="diagonal-45-style1-5" transform="matrix(1,0,0,1,0,2.05)">
                                        <g opacity="0.7">
                                            <g id="Rectangle-5">
                                                <g id="Path_296" transform="matrix(0.707107,0.707107,-0.707107,0.707107,154.137,4.18)">
                                                    <path d="M0,0L6.642,0L6.765,217.978L0.123,217.978L0,0Z" style="fill:rgb(255,88,80);"/>
                                                </g>
                                                <g id="Path_297" transform="matrix(0.707107,0.707107,-0.707107,0.707107,173.52,4.446)">
                                                    <path d="M0,0L6.642,0L6.758,205.359L0.116,205.359L0,0Z" style="fill:rgb(180,154,133);"/>
                                                </g>
                                                <g id="Path_298" transform="matrix(0.707107,0.707107,-0.707107,0.707107,223.568,6.841)">
                                                    <path d="M0,0L6.642,0L6.764,217.048L0.122,217.048L0,0Z" style="fill:rgb(180,154,133);"/>
                                                </g>
                                                <g id="Path_299" transform="matrix(0.707107,0.707107,-0.707107,0.707107,191.576,1.787)">
                                                    <path d="M0,0L6.642,0L6.772,231L0.13,231L0,0Z" style="fill:rgb(80,182,255);"/>
                                                </g>
                                                <g id="Path_300" transform="matrix(0.707107,0.707107,-0.707107,0.707107,164.332,6.546)">
                                                    <path d="M0,0L3.055,0L3.172,208.414L0.117,208.414L0,0Z" style="fill:rgb(243,193,48);"/>
                                                </g>
                                                <g id="Path_301" transform="matrix(0.707107,0.707107,-0.707107,0.707107,200.373,5.419)">
                                                    <path d="M0,0L3.055,0L3.177,217.05L0.122,217.05L0,0Z" style="fill:rgb(255,88,80);"/>
                                                </g>
                                                <g id="Path_302" transform="matrix(0.707107,0.707107,-0.707107,0.707107,206.224,6.606)">
                                                    <path d="M0,0L3.055,0L3.175,213.329L0.12,213.329L0,0Z" style="fill:rgb(243,192,47);"/>
                                                </g>
                                                <g id="Path_303" transform="matrix(0.707107,0.707107,-0.707107,0.707107,221.571,0)">
                                                    <path d="M0,0L3.055,0L3.178,219.173L0.123,219.173L0,0Z" style="fill:rgb(35,219,149);"/>
                                                </g>
                                            </g>
                                        </g>
                                    </g>
                                    <g id="diagonal-45-style1-6" transform="matrix(1,0,0,1,89.191,2.05)">
                                        <g opacity="0.7">
                                            <g id="Rectangle-6">
                                                <g id="Path_304" transform="matrix(0.707107,0.707107,-0.707107,0.707107,154.137,4.18)">
                                                    <path d="M0,0L6.642,0L6.765,217.978L0.123,217.978L0,0Z" style="fill:rgb(255,88,80);"/>
                                                </g>
                                                <g id="Path_305" transform="matrix(0.707107,0.707107,-0.707107,0.707107,173.52,4.446)">
                                                    <path d="M0,0L6.642,0L6.758,205.359L0.116,205.359L0,0Z" style="fill:rgb(180,154,133);"/>
                                                </g>
                                                <g id="Path_306" transform="matrix(0.707107,0.707107,-0.707107,0.707107,223.568,6.841)">
                                                    <path d="M0,0L6.642,0L6.764,217.048L0.122,217.048L0,0Z" style="fill:rgb(180,154,133);"/>
                                                </g>
                                                <g id="Path_307" transform="matrix(0.707107,0.707107,-0.707107,0.707107,191.576,1.787)">
                                                    <path d="M0,0L6.642,0L6.772,231L0.13,231L0,0Z" style="fill:rgb(80,182,255);"/>
                                                </g>
                                                <g id="Path_308" transform="matrix(0.707107,0.707107,-0.707107,0.707107,164.332,6.546)">
                                                    <path d="M0,0L3.055,0L3.172,208.414L0.117,208.414L0,0Z" style="fill:rgb(243,193,48);"/>
                                                </g>
                                                <g id="Path_309" transform="matrix(0.707107,0.707107,-0.707107,0.707107,200.373,5.419)">
                                                    <path d="M0,0L3.055,0L3.177,217.05L0.122,217.05L0,0Z" style="fill:rgb(255,88,80);"/>
                                                </g>
                                                <g id="Path_310" transform="matrix(0.707107,0.707107,-0.707107,0.707107,206.224,6.606)">
                                                    <path d="M0,0L3.055,0L3.175,213.329L0.12,213.329L0,0Z" style="fill:rgb(243,192,47);"/>
                                                </g>
                                                <g id="Path_311" transform="matrix(0.707107,0.707107,-0.707107,0.707107,221.571,0)">
                                                    <path d="M0,0L3.055,0L3.178,219.173L0.123,219.173L0,0Z" style="fill:rgb(35,219,149);"/>
                                                </g>
                                            </g>
                                        </g>
                                    </g>
                                    <g id="diagonal-45-style1-7" transform="matrix(1,0,0,1,171.462,6.664)">
                                        <g opacity="0.7">
                                            <g id="Rectangle-7">
                                                <g id="Path_312" transform="matrix(0.707107,0.707107,-0.707107,0.707107,154.137,4.18)">
                                                    <path d="M0,0L6.642,0L6.765,217.978L0.123,217.978L0,0Z" style="fill:rgb(255,88,80);"/>
                                                </g>
                                                <g id="Path_313" transform="matrix(0.707107,0.707107,-0.707107,0.707107,173.52,4.446)">
                                                    <path d="M0,0L6.642,0L6.758,205.359L0.116,205.359L0,0Z" style="fill:rgb(180,154,133);"/>
                                                </g>
                                                <g id="Path_314" transform="matrix(0.707107,0.707107,-0.707107,0.707107,223.568,6.841)">
                                                    <path d="M0,0L6.642,0L6.764,217.048L0.122,217.048L0,0Z" style="fill:rgb(180,154,133);"/>
                                                </g>
                                                <g id="Path_315" transform="matrix(0.707107,0.707107,-0.707107,0.707107,191.576,1.787)">
                                                    <path d="M0,0L6.642,0L6.772,231L0.13,231L0,0Z" style="fill:rgb(80,182,255);"/>
                                                </g>
                                                <g id="Path_316" transform="matrix(0.707107,0.707107,-0.707107,0.707107,164.332,6.546)">
                                                    <path d="M0,0L3.055,0L3.172,208.414L0.117,208.414L0,0Z" style="fill:rgb(243,193,48);"/>
                                                </g>
                                                <g id="Path_317" transform="matrix(0.707107,0.707107,-0.707107,0.707107,200.373,5.419)">
                                                    <path d="M0,0L3.055,0L3.177,217.05L0.122,217.05L0,0Z" style="fill:rgb(255,88,80);"/>
                                                </g>
                                                <g id="Path_318" transform="matrix(0.707107,0.707107,-0.707107,0.707107,206.224,6.606)">
                                                    <path d="M0,0L3.055,0L3.175,213.329L0.12,213.329L0,0Z" style="fill:rgb(243,192,47);"/>
                                                </g>
                                                <g id="Path_319" transform="matrix(0.707107,0.707107,-0.707107,0.707107,221.571,0)">
                                                    <path d="M0,0L3.055,0L3.178,219.173L0.123,219.173L0,0Z" style="fill:rgb(35,219,149);"/>
                                                </g>
                                            </g>
                                        </g>
                                    </g>
                                    <g id="diagonal-45-style1-8" transform="matrix(1,0,0,1,260.909,8.458)">
                                        <g opacity="0.7">
                                            <g id="Rectangle-8">
                                                <g id="Path_320" transform="matrix(0.707107,0.707107,-0.707107,0.707107,154.137,4.18)">
                                                    <path d="M0,0L6.642,0L6.765,217.978L0.123,217.978L0,0Z" style="fill:rgb(255,88,80);"/>
                                                </g>
                                                <g id="Path_321" transform="matrix(0.707107,0.707107,-0.707107,0.707107,173.52,4.446)">
                                                    <path d="M0,0L6.642,0L6.758,205.359L0.116,205.359L0,0Z" style="fill:rgb(180,154,133);"/>
                                                </g>
                                                <g id="Path_322" transform="matrix(0.707107,0.707107,-0.707107,0.707107,223.568,6.841)">
                                                    <path d="M0,0L6.642,0L6.764,217.048L0.122,217.048L0,0Z" style="fill:rgb(180,154,133);"/>
                                                </g>
                                                <g id="Path_323" transform="matrix(0.707107,0.707107,-0.707107,0.707107,191.576,1.787)">
                                                    <path d="M0,0L6.642,0L6.772,231L0.13,231L0,0Z" style="fill:rgb(80,182,255);"/>
                                                </g>
                                                <g id="Path_324" transform="matrix(0.707107,0.707107,-0.707107,0.707107,164.332,6.546)">
                                                    <path d="M0,0L3.055,0L3.172,208.414L0.117,208.414L0,0Z" style="fill:rgb(243,193,48);"/>
                                                </g>
                                                <g id="Path_325" transform="matrix(0.707107,0.707107,-0.707107,0.707107,200.373,5.419)">
                                                    <path d="M0,0L3.055,0L3.177,217.05L0.122,217.05L0,0Z" style="fill:rgb(255,88,80);"/>
                                                </g>
                                                <g id="Path_326" transform="matrix(0.707107,0.707107,-0.707107,0.707107,206.224,6.606)">
                                                    <path d="M0,0L3.055,0L3.175,213.329L0.12,213.329L0,0Z" style="fill:rgb(243,192,47);"/>
                                                </g>
                                                <g id="Path_327" transform="matrix(0.707107,0.707107,-0.707107,0.707107,221.571,0)">
                                                    <path d="M0,0L3.055,0L3.178,219.173L0.123,219.173L0,0Z" style="fill:rgb(35,219,149);"/>
                                                </g>
                                            </g>
                                        </g>
                                    </g>
                                </g>
                            </g>
                        </g>
                    </g>
                </g>
            </g>
            <g transform="matrix(2.34227,0,0,2.61228,-52.0155,-17.2301)">
                <g opacity="0.6">
                    <g transform="matrix(9.23062,0,0,29.0805,23.6411,18.7903)">
                        <rect x="0" y="-0.287" width="0.5" height="0.037" style="fill-rule:nonzero;"/>
                    </g>
                    <g transform="matrix(9.23062,0,0,29.0805,23.6411,22.7343)">
                        <rect x="0" y="-0.287" width="0.5" height="0.037" style="fill-rule:nonzero;"/>
                    </g>
                    <g transform="matrix(9.23062,0,0,29.0805,23.6411,26.7844)">
                        <rect x="0" y="-0.287" width="0.5" height="0.037" style="fill-rule:nonzero;"/>
                    </g>
                </g>
            </g>
        </g>
    </g>
</svg>
