<?xml version="1.0" encoding="UTF-8" standalone="no"?>
<!DOCTYPE svg PUBLIC "-//W3C//DTD SVG 1.1//EN" "http://www.w3.org/Graphics/SVG/1.1/DTD/svg11.dtd">
<svg width="100%" height="100%" viewBox="0 0 520 55" version="1.1" xmlns="http://www.w3.org/2000/svg" xmlns:xlink="http://www.w3.org/1999/xlink" xml:space="preserve" xmlns:serif="http://www.serif.com/" style="fill-rule:evenodd;clip-rule:evenodd;stroke-linecap:round;stroke-linejoin:round;stroke-miterlimit:1.5;">
    <g transform="matrix(1,0,0,1,0,-582.715)">
        <g id="workbench" transform="matrix(2.35755,0,0,0.771141,4.39095,593.708)">
            <rect x="-1.863" y="-14.255" width="220.561" height="70.343" style="fill:none;"/>
            <g transform="matrix(0.923106,0,0,0.995492,9.77961,-0.0642701)">
                <g transform="matrix(0.459502,0,0,1.30265,19.0284,-6.58719)">
                    <path d="M12.47,23.08L12.47,32.08L19,32.08C19.943,31.986 20.89,32.231 21.67,32.77C22.257,33.388 22.545,34.232 22.46,35.08C22.548,35.94 22.26,36.798 21.67,37.43C20.897,37.986 19.948,38.242 19,38.15L3.52,38.15C2.554,38.235 1.589,37.973 0.8,37.41C0.207,36.779 -0.085,35.922 0,35.06C-0.085,34.212 0.203,33.368 0.79,32.75C1.6,32.211 2.572,31.968 3.54,32.06L5.65,32.06L5.65,18.59L4.45,18.59C3.499,18.68 2.546,18.432 1.76,17.89C1.184,17.255 0.907,16.402 1,15.55C0.91,14.701 1.187,13.853 1.76,13.22C2.55,12.679 3.507,12.434 4.46,12.53L10.37,12.53C10.78,12.504 11.188,12.613 11.53,12.84C11.804,13.048 11.961,13.376 11.95,13.72L11.95,17.82C13.563,15.977 15.468,14.413 17.59,13.19C19.324,12.272 21.258,11.798 23.22,11.81C24.755,11.72 26.277,12.139 27.55,13C28.588,13.778 29.185,15.014 29.15,16.31C29.179,17.331 28.758,18.315 28,19C27.217,19.693 26.194,20.052 25.15,20C24.09,19.944 23.059,19.628 22.15,19.08C21.429,18.62 20.623,18.311 19.78,18.17C18.644,18.255 17.556,18.669 16.65,19.36C15.137,20.458 13.736,21.704 12.47,23.08Z" style="fill:rgb(35,31,32);fill-rule:nonzero;"/>
                </g>
                <g transform="matrix(0.459502,0,0,1.30265,19.0284,-6.58719)">
                    <path d="M52.94,18.59L52.5,18.59C51.673,18.657 50.854,18.378 50.24,17.82C49.695,17.195 49.421,16.377 49.48,15.55C49.393,14.7 49.673,13.851 50.25,13.22C51.038,12.683 51.99,12.438 52.94,12.53L58.18,12.53C58.59,12.502 58.998,12.611 59.34,12.84C59.614,13.048 59.771,13.376 59.76,13.72L59.76,32.06L60.2,32.06C61.037,32.003 61.862,32.284 62.49,32.84C63.045,33.441 63.33,34.244 63.28,35.06C63.365,35.926 63.07,36.789 62.47,37.42C61.682,37.975 60.719,38.228 59.76,38.13L55.1,38.13C54.675,38.156 54.252,38.04 53.9,37.8C53.614,37.583 53.453,37.238 53.47,36.88L53.47,34.78C52.662,36.045 51.538,37.079 50.21,37.78C48.804,38.477 47.249,38.82 45.68,38.78C42.713,38.78 40.507,37.883 39.06,36.09C37.613,34.297 36.893,31.55 36.9,27.85L36.9,18.59L36.43,18.59C35.598,18.652 34.774,18.374 34.15,17.82C33.602,17.196 33.324,16.379 33.38,15.55C33.298,14.697 33.586,13.848 34.17,13.22C34.972,12.679 35.938,12.435 36.9,12.53L42.11,12.53C42.511,12.502 42.91,12.611 43.24,12.84C43.499,13.057 43.644,13.382 43.63,13.72L43.63,26.6C43.63,28.88 43.94,30.47 44.57,31.4C45.297,32.366 46.476,32.889 47.68,32.78C49.131,32.813 50.522,32.188 51.46,31.08C52.49,29.821 53.017,28.224 52.94,26.6L52.94,18.59Z" style="fill:rgb(35,31,32);fill-rule:nonzero;"/>
                </g>
                <g transform="matrix(0.459502,0,0,1.30265,19.0284,-6.58719)">
                    <path d="M79.21,15C80.139,14.196 81.211,13.576 82.37,13.17C83.595,12.729 84.888,12.505 86.19,12.51C89.732,12.388 93.165,13.774 95.63,16.32C98.118,18.953 99.442,22.481 99.3,26.1C99.384,29.516 98.025,32.814 95.56,35.18C93.04,37.612 89.641,38.926 86.14,38.82C84.535,38.858 82.941,38.544 81.47,37.9C80.156,37.287 79.038,36.321 78.24,35.11L78.24,36.94C78.256,37.284 78.094,37.614 77.81,37.81C77.451,38.043 77.027,38.156 76.6,38.13L72.34,38.13C71.391,38.22 70.44,37.968 69.66,37.42C69.075,36.781 68.787,35.923 68.87,35.06C68.815,34.242 69.089,33.436 69.63,32.82C70.253,32.278 71.066,32.004 71.89,32.06L72.34,32.06L72.34,8L71.89,8C71.054,8.059 70.23,7.773 69.61,7.21C69.046,6.586 68.761,5.759 68.82,4.92C68.735,4.058 69.027,3.201 69.62,2.57C70.412,2.014 71.377,1.759 72.34,1.85L77.52,1.85C77.991,1.806 78.459,1.963 78.81,2.28C79.114,2.68 79.257,3.18 79.21,3.68L79.21,15ZM85.33,18.41C83.607,18.368 81.953,19.103 80.83,20.41C79.585,21.857 78.931,23.722 79,25.63C78.915,27.541 79.551,29.415 80.78,30.88C81.918,32.171 83.559,32.911 85.28,32.911C87.001,32.911 88.642,32.171 89.78,30.88C91.011,29.419 91.65,27.548 91.57,25.64C91.636,23.759 90.993,21.92 89.77,20.49C88.671,19.178 87.042,18.422 85.33,18.43L85.33,18.41Z" style="fill:rgb(35,31,32);fill-rule:nonzero;"/>
                </g>
                <g transform="matrix(0.459502,0,0,1.30265,19.0284,-6.58719)">
                    <path d="M119.77,32.06L125.77,32.06C126.726,31.97 127.684,32.214 128.48,32.75C129.077,33.362 129.374,34.209 129.29,35.06C129.37,35.925 129.07,36.783 128.47,37.41C127.683,37.96 126.726,38.215 125.77,38.13L107,38.13C106.044,38.215 105.087,37.96 104.3,37.41C103.7,36.783 103.4,35.925 103.48,35.06C103.404,34.213 103.691,33.373 104.27,32.75C105.073,32.212 106.038,31.968 107,32.06L113,32.06L113,18.59L109.87,18.59C108.929,18.678 107.986,18.43 107.21,17.89C106.62,17.262 106.328,16.408 106.41,15.55C106.323,14.7 106.603,13.851 107.18,13.22C107.968,12.683 108.92,12.438 109.87,12.53L118.21,12.53C118.63,12.5 119.048,12.609 119.4,12.84C119.674,13.048 119.831,13.376 119.82,13.72L119.77,32.06ZM115.78,0C116.746,-0.124 117.721,0.158 118.47,0.78C118.91,1.29 119.13,2.53 119.13,4.49C119.13,6.45 118.93,7.54 118.54,7.99C118.15,8.44 117.2,8.67 115.72,8.67C114.24,8.67 113.35,8.46 112.94,8.04C112.429,7.294 112.205,6.388 112.31,5.49C112.31,3.12 112.53,1.62 112.95,0.97C113.37,0.32 114.32,0 115.78,0Z" style="fill:rgb(35,31,32);fill-rule:nonzero;"/>
                </g>
                <g transform="matrix(0.459502,0,0,1.30265,19.0284,-6.58719)">
                    <path d="M144.75,23.08L150.6,17.82C150.137,17.703 149.723,17.44 149.42,17.07C149.175,16.621 149.064,16.11 149.1,15.6C149.011,14.738 149.282,13.875 149.85,13.22C150.627,12.683 151.57,12.439 152.51,12.53L158.64,12.53C159.583,12.442 160.528,12.686 161.31,13.22C161.894,13.848 162.182,14.697 162.1,15.55C162.154,16.175 161.991,16.8 161.64,17.32C161.124,17.794 160.467,18.085 159.77,18.15C158.959,18.295 158.178,18.576 157.46,18.98C156.598,19.52 155.811,20.173 155.12,20.92L153.12,22.92L160.43,32.01L161.13,32.01C161.999,31.945 162.861,32.213 163.54,32.76C164.106,33.367 164.396,34.182 164.34,35.01C164.425,35.872 164.133,36.729 163.54,37.36C162.748,37.916 161.783,38.171 160.82,38.08L154.03,38.08C153.121,38.157 152.21,37.943 151.43,37.47C150.858,36.996 150.555,36.27 150.62,35.53C150.592,34.961 150.761,34.399 151.1,33.94C151.516,33.472 152.052,33.126 152.65,32.94L148.13,27.42L144.72,30.55L144.72,36.3C144.774,36.807 144.646,37.318 144.36,37.74C143.998,38.042 143.528,38.182 143.06,38.13L138.06,38.13C137.128,38.216 136.197,37.96 135.44,37.41C134.858,36.773 134.571,35.919 134.65,35.06C134.592,34.244 134.862,33.437 135.4,32.82C136.006,32.276 136.808,32.001 137.62,32.06L138.06,32.06L138.06,8L137.62,8C136.791,8.053 135.975,7.76 135.37,7.19C134.824,6.565 134.548,5.748 134.6,4.92C134.524,4.062 134.815,3.212 135.4,2.58C136.168,2.021 137.114,1.761 138.06,1.85L143.06,1.85C143.526,1.799 143.994,1.936 144.36,2.23C144.648,2.655 144.775,3.169 144.72,3.68L144.75,23.08Z" style="fill:rgb(35,31,32);fill-rule:nonzero;"/>
                </g>
                <g transform="matrix(0.459502,0,0,1.30265,19.0284,-6.58719)">
                    <path d="M190.77,35.1C190.777,35.901 190.464,36.672 189.9,37.24C189.348,37.819 188.579,38.142 187.78,38.13L173.1,38.13C172.293,38.151 171.514,37.827 170.96,37.24C169.835,36.033 169.835,34.137 170.96,32.93C171.519,32.352 172.296,32.036 173.1,32.06L187.78,32.06C188.576,32.045 189.344,32.361 189.9,32.93C190.477,33.502 190.792,34.288 190.77,35.1Z" style="fill:rgb(35,31,32);fill-rule:nonzero;"/>
                </g>
            </g>
            <g transform="matrix(1.82361,0,0,5.2251,-350.22,-79.303)">
                <text x="255.217px" y="23.55px" style="font-family:'HelveticaNeue-Thin', 'Helvetica Neue', sans-serif;font-weight:200;font-size:12px;fill:rgb(102,102,102);">w<tspan x="263.905px 270.589px 274.165px 279.961px 286.873px 293.341px 299.809px 306.277px " y="23.55px 23.55px 23.55px 23.55px 23.55px 23.55px 23.55px 23.55px ">orkbench</tspan></text>
            </g>
            <g transform="matrix(-0.38839,-1.45414e-16,2.41815e-17,-0.603671,14.5677,52.1086)">
                <path d="M7.626,47.437L21.268,20.154L34.91,47.437" style="fill:none;stroke:rgb(189,189,189);stroke-width:5.51px;"/>
            </g>
        </g>
    </g>
</svg>
