<svg width="41" height="41" viewBox="0 0 41 41" fill="none" xmlns="http://www.w3.org/2000/svg">
<mask id="path-1-inside-1" fill="white">
<path d="M35.276 23.2076C35.6939 21.2049 35.7132 19.1394 35.3329 17.1292C34.9526 15.119 34.18 13.2034 33.0594 11.4917C31.9387 9.7801 30.4919 8.30595 28.8015 7.15345C27.1112 6.00096 25.2103 5.19269 23.2076 4.77479L23.0347 5.60316C24.9287 5.99836 26.7263 6.76272 28.3248 7.85262C29.9234 8.94252 31.2916 10.3366 32.3514 11.9553C33.4112 13.5739 34.1418 15.3855 34.5014 17.2865C34.8611 19.1875 34.8428 21.1408 34.4476 23.0347L35.276 23.2076Z"/>
</mask>
<path d="M35.276 23.2076C35.6939 21.2049 35.7132 19.1394 35.3329 17.1292C34.9526 15.119 34.18 13.2034 33.0594 11.4917C31.9387 9.7801 30.4919 8.30595 28.8015 7.15345C27.1112 6.00096 25.2103 5.19269 23.2076 4.77479L23.0347 5.60316C24.9287 5.99836 26.7263 6.76272 28.3248 7.85262C29.9234 8.94252 31.2916 10.3366 32.3514 11.9553C33.4112 13.5739 34.1418 15.3855 34.5014 17.2865C34.8611 19.1875 34.8428 21.1408 34.4476 23.0347L35.276 23.2076Z" stroke="#AEAEAE" stroke-width="2" mask="url(#path-1-inside-1)"/>
<mask id="path-2-inside-2" fill="white">
<path d="M14.8424 5.33412C12.8594 6.03348 11.0385 7.12704 9.48941 8.54891C7.94031 9.97077 6.69507 11.6915 5.82872 13.6075C4.96238 15.5234 4.49285 17.5949 4.44844 19.6972C4.40403 21.7994 4.78564 23.8889 5.57029 25.8397L6.35538 25.524C5.61335 23.6791 5.25246 21.7031 5.29446 19.715C5.33646 17.727 5.78048 15.768 6.59977 13.9561C7.41906 12.1442 8.59666 10.517 10.0616 9.17232C11.5266 7.82769 13.2486 6.79353 15.1239 6.13215L14.8424 5.33412Z"/>
</mask>
<path d="M14.8424 5.33412C12.8594 6.03348 11.0385 7.12704 9.48941 8.54891C7.94031 9.97077 6.69507 11.6915 5.82872 13.6075C4.96238 15.5234 4.49285 17.5949 4.44844 19.6972C4.40403 21.7994 4.78564 23.8889 5.57029 25.8397L6.35538 25.524C5.61335 23.6791 5.25246 21.7031 5.29446 19.715C5.33646 17.727 5.78048 15.768 6.59977 13.9561C7.41906 12.1442 8.59666 10.517 10.0616 9.17232C11.5266 7.82769 13.2486 6.79353 15.1239 6.13215L14.8424 5.33412Z" stroke="#AEAEAE" stroke-width="2" mask="url(#path-2-inside-2)"/>
<path d="M13.6204 3.26678L17.6724 4.30782L15.8049 8.05141L13.6204 3.26678Z" fill="white" stroke="#AEAEAE"/>
<path d="M37.4784 23.4924L34.4436 26.372L32.2643 22.8009L37.4784 23.4924Z" fill="white" stroke="#AEAEAE"/>
<mask id="path-5-inside-3" fill="white">
<path d="M9.6419 31.6444C11.1673 33.0078 12.9463 34.0573 14.8773 34.7332C16.8083 35.409 18.8535 35.6979 20.8962 35.5834C22.9389 35.4688 24.9389 34.953 26.7823 34.0655C28.6256 33.1779 30.2761 31.936 31.6394 30.4106L31.0085 29.8467C29.7192 31.2893 28.1584 32.4637 26.4152 33.303C24.672 34.1424 22.7805 34.6301 20.8488 34.7385C18.9171 34.8468 16.983 34.5736 15.1568 33.9345C13.3307 33.2953 11.6483 32.3028 10.2058 31.0135L9.6419 31.6444Z"/>
</mask>
<path d="M9.6419 31.6444C11.1673 33.0078 12.9463 34.0573 14.8773 34.7332C16.8083 35.409 18.8535 35.6979 20.8962 35.5834C22.9389 35.4688 24.9389 34.953 26.7823 34.0655C28.6256 33.1779 30.2761 31.936 31.6394 30.4106L31.0085 29.8467C29.7192 31.2893 28.1584 32.4637 26.4152 33.303C24.672 34.1424 22.7805 34.6301 20.8488 34.7385C18.9171 34.8468 16.983 34.5736 15.1568 33.9345C13.3307 33.2953 11.6483 32.3028 10.2058 31.0135L9.6419 31.6444Z" stroke="#AEAEAE" stroke-width="2" mask="url(#path-5-inside-3)"/>
<path d="M8.11366 32.9872L7.99907 28.8053L12.1121 29.5701L8.11366 32.9872Z" fill="white" stroke="#AEAEAE"/>
<circle cx="19.788" cy="14.4611" r="3.58023" stroke="#AEAEAE"/>
<path d="M15.3307 23.9901C15.3307 21.603 17.2658 19.668 19.6528 19.668C22.0398 19.668 23.9749 21.603 23.9749 23.9901V26.2007H15.3307V23.9901Z" stroke="#AEAEAE"/>
</svg>
