<svg width="25" height="31" viewBox="0 0 25 31" fill="none" xmlns="http://www.w3.org/2000/svg">
<path d="M24.5718 1H5.32306C3.11392 1 1.32306 2.79088 1.32306 5.00002V5.00002" stroke="#AEAEAE"/>
<path d="M1.5 4.83398H23.2488C23.5249 4.83398 23.7488 5.05784 23.7488 5.33398V30.0008C23.7488 30.2769 23.5249 30.5008 23.2488 30.5008H3C2.17157 30.5008 1.5 29.8292 1.5 29.0008V4.83398Z" stroke="#AEAEAE"/>
<path d="M20.0623 20.375C20.0623 21.6693 16.8097 22.7186 12.7975 22.7186C8.78527 22.7186 5.53271 21.6693 5.53271 20.375" stroke="#AEAEAE" stroke-linecap="round"/>
<path d="M5.53299 14.7496C5.53299 16.2114 8.78555 17.3965 12.7978 17.3965C16.81 17.3965 20.0626 16.2114 20.0626 14.7496" stroke="#AEAEAE" stroke-linecap="round" stroke-linejoin="round"/>
<path d="M5.53271 14.75V20.3746" stroke="#AEAEAE" stroke-linecap="round"/>
<path d="M20.0624 14.75V20.3746" stroke="#AEAEAE" stroke-linecap="round"/>
<path d="M20.0628 14.9061C20.0628 13.5255 16.8102 12.4063 12.798 12.4063C8.78576 12.4063 5.5332 13.5255 5.5332 14.9061" stroke="#AEAEAE" stroke-linecap="round" stroke-linejoin="round"/>
</svg>
