<svg width="39" height="38" viewBox="0 0 39 38" fill="none" xmlns="http://www.w3.org/2000/svg">
<mask id="path-1-inside-1" fill="white">
<path d="M29.5685 9.96076C27.7814 7.86993 25.4144 6.35599 22.7669 5.61038C20.1194 4.86478 17.3102 4.92101 14.6946 5.77195C12.0791 6.62289 9.77457 8.23032 8.07256 10.391C6.37055 12.5517 5.34748 15.1685 5.13271 17.9106C4.91794 20.6527 5.52113 23.3969 6.86599 25.7962C8.21085 28.1955 10.237 30.1422 12.6882 31.3899C15.1394 32.6377 17.9055 33.1306 20.6368 32.8063C23.3682 32.482 25.942 31.355 28.0328 29.5679L18.9971 18.9965L29.5685 9.96076Z"/>
</mask>
<path d="M29.5685 9.96076C27.7814 7.86993 25.4144 6.35599 22.7669 5.61038C20.1194 4.86478 17.3102 4.92101 14.6946 5.77195C12.0791 6.62289 9.77457 8.23032 8.07256 10.391C6.37055 12.5517 5.34748 15.1685 5.13271 17.9106C4.91794 20.6527 5.52113 23.3969 6.86599 25.7962C8.21085 28.1955 10.237 30.1422 12.6882 31.3899C15.1394 32.6377 17.9055 33.1306 20.6368 32.8063C23.3682 32.482 25.942 31.355 28.0328 29.5679L18.9971 18.9965L29.5685 9.96076Z" stroke="#AEAEAE" stroke-width="2" mask="url(#path-1-inside-1)"/>
<path d="M23.4041 18.9225L31.8496 12.7822C33.0219 15.0226 33.5385 17.5528 33.3336 20.0807C33.1287 22.6094 32.2109 25.024 30.6923 27.0468L23.3441 19.68C23.1273 19.4626 23.1558 19.103 23.4041 18.9225Z" stroke="#AEAEAE"/>
</svg>
