<svg width="29" height="30" viewBox="0 0 29 30" fill="none" xmlns="http://www.w3.org/2000/svg">
<mask id="path-1-inside-1" fill="white">
<path fill-rule="evenodd" clip-rule="evenodd" d="M18.7989 15.2937C18.4903 14.9712 18.4378 14.4853 18.6324 14.0837C20.3794 10.4783 19.7932 6.01485 16.8404 2.97429C14.2152 0.27115 10.4112 -0.59519 7.03106 0.39873C6.36895 0.593421 6.21221 1.41377 6.69302 1.90886L11.7071 7.07184C12.0918 7.46804 12.0826 8.10113 11.6864 8.4859L8.43143 11.6469C8.03524 12.0317 7.40214 12.0224 7.01737 11.6262L2.00334 6.46325C1.52253 5.96816 0.697949 6.10082 0.483964 6.75695C-0.608451 10.1066 0.146193 13.9343 2.77135 16.6375C5.57294 19.5223 9.71714 20.3151 13.256 18.9874C13.6538 18.8382 14.1084 18.9188 14.4037 19.2243L24.0676 29.2199C24.8365 30.0152 26.1052 30.0352 26.8988 29.2645L28.2053 27.9957C28.9935 27.2302 29.0166 25.9722 28.257 25.1783L18.7989 15.2937Z"/>
</mask>
<path fill-rule="evenodd" clip-rule="evenodd" d="M18.7989 15.2937C18.4903 14.9712 18.4378 14.4853 18.6324 14.0837C20.3794 10.4783 19.7932 6.01485 16.8404 2.97429C14.2152 0.27115 10.4112 -0.59519 7.03106 0.39873C6.36895 0.593421 6.21221 1.41377 6.69302 1.90886L11.7071 7.07184C12.0918 7.46804 12.0826 8.10113 11.6864 8.4859L8.43143 11.6469C8.03524 12.0317 7.40214 12.0224 7.01737 11.6262L2.00334 6.46325C1.52253 5.96816 0.697949 6.10082 0.483964 6.75695C-0.608451 10.1066 0.146193 13.9343 2.77135 16.6375C5.57294 19.5223 9.71714 20.3151 13.256 18.9874C13.6538 18.8382 14.1084 18.9188 14.4037 19.2243L24.0676 29.2199C24.8365 30.0152 26.1052 30.0352 26.8988 29.2645L28.2053 27.9957C28.9935 27.2302 29.0166 25.9722 28.257 25.1783L18.7989 15.2937Z" fill="white"/>
<path d="M16.8404 2.97429L17.5578 2.27761L16.8404 2.97429ZM2.77135 16.6375L3.48873 15.9408L2.77135 16.6375ZM24.0676 29.2199L24.7865 28.5248H24.7865L24.0676 29.2199ZM26.8988 29.2645L27.5955 29.9819L27.5955 29.9819L26.8988 29.2645ZM28.2053 27.9957L28.902 28.7131L28.2053 27.9957ZM28.257 25.1783L28.9795 24.4869L28.9795 24.4869L28.257 25.1783ZM13.256 18.9874L13.6072 19.9237L13.256 18.9874ZM14.4037 19.2243L13.6848 19.9193L14.4037 19.2243ZM11.6864 8.4859L12.383 9.20328L11.6864 8.4859ZM6.69302 1.90886L5.97565 2.60555L6.69302 1.90886ZM2.00334 6.46325L1.28596 7.15993L2.00334 6.46325ZM18.7989 15.2937L18.0764 15.985L18.7989 15.2937ZM19.5323 14.5197C21.4569 10.548 20.8128 5.62937 17.5578 2.27761L16.123 3.67097C18.7736 6.40033 19.302 10.4085 17.7325 13.6476L19.5323 14.5197ZM17.5578 2.27761C14.6639 -0.702203 10.4711 -1.65513 6.74896 -0.560654L7.31317 1.35811C10.3514 0.464749 13.7665 1.2445 16.123 3.67097L17.5578 2.27761ZM5.97565 2.60555L10.9897 7.76852L12.4244 6.37516L7.4104 1.21218L5.97565 2.60555ZM10.9897 7.76852L7.73475 10.9295L9.12812 12.3643L12.383 9.20328L10.9897 7.76852ZM7.73475 10.9295L2.72072 5.76657L1.28596 7.15993L6.29999 12.3229L7.73475 10.9295ZM-0.466753 6.4469C-1.66969 10.1354 -0.839874 14.3543 2.05397 17.3341L3.48873 15.9408C1.13226 13.5143 0.452787 10.0778 1.43468 7.06701L-0.466753 6.4469ZM2.05397 17.3341C5.14234 20.5143 9.70965 21.386 13.6072 19.9237L12.9047 18.0511C9.72462 19.2442 6.00353 18.5303 3.48873 15.9408L2.05397 17.3341ZM24.7865 28.5248L15.1227 18.5292L13.6848 19.9193L23.3486 29.9149L24.7865 28.5248ZM26.2021 28.5471C25.8053 28.9325 25.171 28.9225 24.7865 28.5248L23.3486 29.9149C24.5021 31.108 26.405 31.138 27.5955 29.9819L26.2021 28.5471ZM27.5086 27.2783L26.2021 28.5471L27.5955 29.9819L28.902 28.7131L27.5086 27.2783ZM27.5344 25.8696C27.9143 26.2665 27.9027 26.8956 27.5086 27.2783L28.902 28.7131C30.0843 27.5648 30.1189 25.6778 28.9795 24.4869L27.5344 25.8696ZM18.0764 15.985L27.5344 25.8696L28.9795 24.4869L19.5214 14.6023L18.0764 15.985ZM13.6072 19.9237C13.6347 19.9134 13.6589 19.9133 13.6739 19.9162C13.6809 19.9176 13.6844 19.9193 13.6852 19.9198C13.6857 19.92 13.6857 19.92 13.6854 19.9198C13.6853 19.9197 13.6851 19.9196 13.685 19.9195C13.6849 19.9195 13.6849 19.9194 13.6848 19.9194C13.6848 19.9193 13.6848 19.9193 13.6848 19.9193L15.1227 18.5292C14.5221 17.908 13.6357 17.7769 12.9047 18.0511L13.6072 19.9237ZM7.73475 10.9295L7.73475 10.9295L6.29999 12.3229C7.06953 13.1153 8.33572 13.1338 9.12812 12.3643L7.73475 10.9295ZM10.9897 7.76852L10.9897 7.76852L12.383 9.20328C13.1754 8.43375 13.194 7.16755 12.4244 6.37516L10.9897 7.76852ZM6.74896 -0.560654C5.24814 -0.119345 5.05766 1.66029 5.97565 2.60555L7.4104 1.21218C7.40588 1.20752 7.41793 1.2192 7.41164 1.24882C7.40832 1.26448 7.39889 1.28904 7.37634 1.31422C7.35152 1.34194 7.3247 1.35472 7.31317 1.35811L6.74896 -0.560654ZM2.72072 5.76657C1.80273 4.82131 0.0182879 4.95963 -0.466753 6.4469L1.43468 7.06701C1.43096 7.07844 1.4174 7.10488 1.38896 7.12887C1.36313 7.15067 1.3383 7.15938 1.32256 7.16225C1.29276 7.16767 1.28144 7.15528 1.28596 7.15993L2.72072 5.76657ZM17.7325 13.6476C17.3757 14.384 17.4485 15.3289 18.0764 15.985L19.5214 14.6023C19.5214 14.6023 19.5216 14.6025 19.5218 14.6028C19.522 14.6031 19.522 14.6032 19.5218 14.6027C19.5213 14.6018 19.5197 14.5979 19.5187 14.5903C19.5166 14.5737 19.5188 14.5476 19.5323 14.5197L17.7325 13.6476Z" fill="#AEAEAE" mask="url(#path-1-inside-1)"/>
</svg>
